<svg xmlns="http://www.w3.org/2000/svg" viewBox="0 0 294 75" fill="none"><g filter="url(#a)"><path d="M24.79 56.32c-3.37 0-6.4-.77-9.09-2.3a17.7 17.7 0 0 1-6.4-6.4A18.12 18.12 0 0 1 7 38.46c0-3.37.74-6.4 2.24-9.08a17.02 17.02 0 0 1 15.04-8.7c2.86 0 5.44.61 7.74 1.85 2.3 1.2 4.16 2.8 5.57 4.8V8.5c0-.77.23-1.36.7-1.79.47-.47 1.07-.7 1.8-.7.72 0 1.32.23 1.79.7.47.43.7 1.02.7 1.8v30.2a18.45 18.45 0 0 1-2.5 9.02 16.87 16.87 0 0 1-6.33 6.28 17.51 17.51 0 0 1-8.96 2.3Zm0-4.48c2.47 0 4.67-.58 6.6-1.73a13.5 13.5 0 0 0 6.34-11.65c-.01-2.51-.59-4.77-1.74-6.78a12.17 12.17 0 0 0-4.6-4.8 12.56 12.56 0 0 0-6.6-1.73 12.63 12.63 0 0 0-11.26 6.53c-1.16 2-1.73 4.27-1.73 6.78a13.26 13.26 0 0 0 6.4 11.65 12.78 12.78 0 0 0 6.59 1.73Zm44.74 4.48c-3.29 0-6.23-.77-8.83-2.3a17.52 17.52 0 0 1-6.21-6.4 18.4 18.4 0 0 1-2.24-9.1c0-3.4.77-6.46 2.3-9.14a17.2 17.2 0 0 1 6.4-6.34 17.6 17.6 0 0 1 9.09-2.37c3.37 0 6.38.8 9.02 2.37a16.73 16.73 0 0 1 6.34 6.34 18.2 18.2 0 0 1 2.43 9.15l-1.98 1.53a16.14 16.14 0 0 1-8 14.15 16.3 16.3 0 0 1-8.32 2.11Zm.51-4.48a12.56 12.56 0 0 0 11.2-6.46 13.72 13.72 0 0 0 1.73-6.85c0-2.56-.58-4.84-1.73-6.85-1.11-2-2.65-3.58-4.6-4.74a12.22 12.22 0 0 0-6.6-1.79c-2.43 0-4.63.6-6.6 1.8a12.76 12.76 0 0 0-4.66 4.73 13.5 13.5 0 0 0-1.73 6.85c0 2.52.57 4.8 1.73 6.85a12.76 12.76 0 0 0 11.26 6.46ZM85.34 56c-.73 0-1.33-.21-1.8-.64a2.43 2.43 0 0 1-.7-1.8V42.63l1.22-5.05 3.77.96v15.04c0 .72-.23 1.32-.7 1.79-.47.43-1.07.64-1.8.64ZM99.9 70.98a2.5 2.5 0 0 1-1.85-.7 2.42 2.42 0 0 1-.64-1.8v-30.2c.04-3.34.83-6.32 2.36-8.97 1.58-2.69 3.7-4.8 6.34-6.33 2.69-1.54 5.7-2.3 9.02-2.3 3.42 0 6.47.78 9.16 2.36a16.73 16.73 0 0 1 6.33 6.34 17.73 17.73 0 0 1 2.37 9.15c0 3.37-.77 6.4-2.3 9.09a17.02 17.02 0 0 1-6.15 6.4 17.04 17.04 0 0 1-8.83 2.3c-2.86 0-5.46-.6-7.8-1.8a15.82 15.82 0 0 1-5.58-4.86v18.82a2.3 2.3 0 0 1-.7 1.8c-.43.46-1 .7-1.73.7Zm15.23-19.14c2.48 0 4.7-.58 6.66-1.73a12.28 12.28 0 0 0 4.6-4.73 13.72 13.72 0 0 0 1.74-6.85c0-2.56-.58-4.84-1.73-6.85-1.11-2-2.65-3.58-4.61-4.74a12.54 12.54 0 0 0-6.66-1.79c-2.43 0-4.63.6-6.59 1.8a12.3 12.3 0 0 0-4.6 4.73c-1.12 2-1.67 4.29-1.67 6.85 0 2.52.55 4.8 1.66 6.85a12.3 12.3 0 0 0 4.61 4.73 12.78 12.78 0 0 0 6.6 1.73Z" fill="#EFD9CE"/></g><g filter="url(#b)"><path d="M160.75 56.32c-3.29 0-6.23-.77-8.84-2.3a17.5 17.5 0 0 1-6.2-6.4 18.39 18.39 0 0 1-2.24-9.1c0-3.4.77-6.46 2.3-9.14a17.2 17.2 0 0 1 6.4-6.34 17.6 17.6 0 0 1 9.09-2.37c3.37 0 6.38.8 9.02 2.37a16.73 16.73 0 0 1 6.34 6.34 18.2 18.2 0 0 1 2.43 9.15l-1.98 1.53a16.15 16.15 0 0 1-8 14.15 16.3 16.3 0 0 1-8.32 2.11Zm.5-4.48a12.56 12.56 0 0 0 11.2-6.46 13.71 13.71 0 0 0 1.74-6.85c0-2.56-.58-4.84-1.73-6.85-1.11-2-2.65-3.58-4.6-4.74a12.22 12.22 0 0 0-6.6-1.79c-2.43 0-4.63.6-6.6 1.8a12.76 12.76 0 0 0-4.66 4.73 13.5 13.5 0 0 0-1.73 6.85c0 2.52.57 4.8 1.72 6.85a12.76 12.76 0 0 0 11.27 6.46Zm15.3 4.16c-.72 0-1.32-.21-1.79-.64a2.42 2.42 0 0 1-.7-1.8V42.63l1.22-5.05 3.77.96v15.04c0 .72-.23 1.32-.7 1.79-.47.43-1.07.64-1.8.64Zm29.81.32c-3.33 0-6.33-.77-9.02-2.3a17.51 17.51 0 0 1-6.34-6.28 18.35 18.35 0 0 1-2.37-9.02V8.52c0-.78.22-1.37.65-1.8a2.5 2.5 0 0 1 1.85-.7c.73 0 1.3.23 1.73.7.47.43.7 1.02.7 1.8v18.8c1.41-2 3.27-3.6 5.57-4.8a16.48 16.48 0 0 1 7.8-1.85c3.3 0 6.24.8 8.84 2.37a16.54 16.54 0 0 1 6.14 6.34 17.99 17.99 0 0 1 2.3 9.08 17.73 17.73 0 0 1-8.7 15.56 18.12 18.12 0 0 1-9.15 2.3Zm0-4.48c2.48 0 4.7-.58 6.66-1.73a13.5 13.5 0 0 0 6.34-11.65c0-2.51-.58-4.77-1.73-6.78a12.17 12.17 0 0 0-4.61-4.8 12.9 12.9 0 0 0-6.66-1.73c-2.43 0-4.63.58-6.59 1.73a12.17 12.17 0 0 0-4.6 4.8c-1.12 2-1.67 4.27-1.67 6.78 0 2.56.55 4.85 1.66 6.85 1.11 2 2.65 3.6 4.61 4.8a12.78 12.78 0 0 0 6.6 1.73Zm43.4 4.48c-3.46 0-6.53-.75-9.22-2.24a16.87 16.87 0 0 1-6.27-6.34 18.66 18.66 0 0 1-2.24-9.21c0-3.5.7-6.57 2.11-9.22a16.38 16.38 0 0 1 5.95-6.33 16.37 16.37 0 0 1 8.7-2.3c3.25 0 6.07.74 8.46 2.23a14.64 14.64 0 0 1 5.63 6.08 19.36 19.36 0 0 1 1.98 8.9c0 .68-.21 1.24-.64 1.66a2.4 2.4 0 0 1-1.66.58h-27.2v-4.1h27.7l-2.74 1.99c.04-2.48-.4-4.7-1.35-6.66a10.88 10.88 0 0 0-4.03-4.6 11.03 11.03 0 0 0-6.14-1.67c-2.44 0-4.57.57-6.4 1.73a11.71 11.71 0 0 0-4.3 4.8c-.97 2-1.46 4.3-1.46 6.9 0 2.61.55 4.91 1.66 6.92 1.15 2 2.71 3.58 4.67 4.74a13.15 13.15 0 0 0 6.79 1.72c1.53 0 3.07-.25 4.6-.76a11.63 11.63 0 0 0 3.78-2.05c.47-.39 1-.58 1.6-.58.6-.04 1.11.1 1.54.45.55.51.83 1.07.83 1.66.04.6-.2 1.11-.7 1.54-1.41 1.2-3.2 2.2-5.38 3a18.82 18.82 0 0 1-6.27 1.16Z" fill="#1C1B20"/></g><g filter="url(#c)"><circle cx="284" cy="46" r="10" fill="#EF4444"/></g><defs><filter id="a" x="7" y="6.02" width="126" height="67.96" filterUnits="userSpaceOnUse" color-interpolation-filters="sRGB"><feFlood flood-opacity="0" result="BackgroundImageFix"/><feBlend in="SourceGraphic" in2="BackgroundImageFix" result="shape"/><feColorMatrix in="SourceAlpha" values="0 0 0 0 0 0 0 0 0 0 0 0 0 0 0 0 0 0 127 0" result="hardAlpha"/><feOffset dy="3"/><feGaussianBlur stdDeviation="2"/><feComposite in2="hardAlpha" operator="arithmetic" k2="-1" k3="1"/><feColorMatrix values="0 0 0 0 0.109804 0 0 0 0 0.105882 0 0 0 0 0.12549 0 0 0 0.25 0"/><feBlend in2="shape" result="effect1_innerShadow_203_2"/></filter><filter id="b" x="137.47" y="4.02" width="133.39" height="62.3" filterUnits="userSpaceOnUse" color-interpolation-filters="sRGB"><feFlood flood-opacity="0" result="BackgroundImageFix"/><feColorMatrix in="SourceAlpha" values="0 0 0 0 0 0 0 0 0 0 0 0 0 0 0 0 0 0 127 0" result="hardAlpha"/><feOffset dy="4"/><feGaussianBlur stdDeviation="3"/><feComposite in2="hardAlpha" operator="out"/><feColorMatrix values="0 0 0 0 0.109804 0 0 0 0 0.105882 0 0 0 0 0.12549 0 0 0 0.25 0"/><feBlend in2="BackgroundImageFix" result="effect1_dropShadow_203_2"/><feBlend in="SourceGraphic" in2="effect1_dropShadow_203_2" result="shape"/></filter><filter id="c" x="274" y="36" width="20" height="24" filterUnits="userSpaceOnUse" color-interpolation-filters="sRGB"><feFlood flood-opacity="0" result="BackgroundImageFix"/><feBlend in="SourceGraphic" in2="BackgroundImageFix" result="shape"/><feColorMatrix in="SourceAlpha" values="0 0 0 0 0 0 0 0 0 0 0 0 0 0 0 0 0 0 127 0" result="hardAlpha"/><feOffset dy="4"/><feGaussianBlur stdDeviation="2"/><feComposite in2="hardAlpha" operator="arithmetic" k2="-1" k3="1"/><feColorMatrix values="0 0 0 0 0 0 0 0 0 0 0 0 0 0 0 0 0 0 0.25 0"/><feBlend in2="shape" result="effect1_innerShadow_203_2"/></filter></defs></svg>