<svg width="36" height="24" viewBox="0 0 36 24" fill="none" xmlns="http://www.w3.org/2000/svg">
<rect width="36" height="24" fill="#1C1B20"/>
<path d="M7.1768 16.075C6.3868 16.075 5.6768 15.895 5.0468 15.535C4.4168 15.165 3.9168 14.665 3.5468 14.035C3.1868 13.405 3.0068 12.69 3.0068 11.89C3.0068 11.1 3.1818 10.39 3.5318 9.76C3.8918 9.13 4.3768 8.635 4.9868 8.275C5.5968 7.905 6.2868 7.72 7.0568 7.72C7.7268 7.72 8.3318 7.865 8.8718 8.155C9.4118 8.435 9.8468 8.81 10.1768 9.28V4.87C10.1768 4.69 10.2318 4.55 10.3418 4.45C10.4518 4.34 10.5918 4.285 10.7618 4.285C10.9318 4.285 11.0718 4.34 11.1818 4.45C11.2918 4.55 11.3468 4.69 11.3468 4.87V11.95C11.3268 12.73 11.1318 13.435 10.7618 14.065C10.4018 14.685 9.9068 15.175 9.2768 15.535C8.6568 15.895 7.9568 16.075 7.1768 16.075ZM7.1768 15.025C7.7568 15.025 8.2718 14.89 8.7218 14.62C9.1818 14.34 9.5418 13.965 9.8018 13.495C10.0718 13.025 10.2068 12.49 10.2068 11.89C10.2068 11.3 10.0718 10.77 9.8018 10.3C9.5418 9.82 9.1818 9.445 8.7218 9.175C8.2718 8.905 7.7568 8.77 7.1768 8.77C6.6068 8.77 6.0918 8.905 5.6318 9.175C5.1718 9.445 4.8068 9.82 4.5368 10.3C4.2668 10.77 4.1318 11.3 4.1318 11.89C4.1318 12.49 4.2668 13.025 4.5368 13.495C4.8068 13.965 5.1718 14.34 5.6318 14.62C6.0918 14.89 6.6068 15.025 7.1768 15.025ZM14.6323 19.51C14.4523 19.51 14.3073 19.455 14.1973 19.345C14.0973 19.245 14.0473 19.105 14.0473 18.925V11.845C14.0573 11.065 14.2423 10.365 14.6023 9.745C14.9723 9.115 15.4673 8.62 16.0873 8.26C16.7173 7.9 17.4223 7.72 18.2023 7.72C19.0023 7.72 19.7173 7.905 20.3473 8.275C20.9773 8.635 21.4723 9.13 21.8323 9.76C22.2023 10.39 22.3873 11.105 22.3873 11.905C22.3873 12.695 22.2073 13.405 21.8473 14.035C21.4973 14.665 21.0173 15.165 20.4073 15.535C19.7973 15.895 19.1073 16.075 18.3373 16.075C17.6673 16.075 17.0573 15.935 16.5073 15.655C15.9673 15.365 15.5323 14.985 15.2023 14.515V18.925C15.2023 19.105 15.1473 19.245 15.0373 19.345C14.9373 19.455 14.8023 19.51 14.6323 19.51ZM18.2023 15.025C18.7823 15.025 19.3023 14.89 19.7623 14.62C20.2223 14.35 20.5823 13.98 20.8423 13.51C21.1123 13.03 21.2473 12.495 21.2473 11.905C21.2473 11.305 21.1123 10.77 20.8423 10.3C20.5823 9.83 20.2223 9.46 19.7623 9.19C19.3023 8.91 18.7823 8.77 18.2023 8.77C17.6323 8.77 17.1173 8.91 16.6573 9.19C16.1973 9.46 15.8373 9.83 15.5773 10.3C15.3173 10.77 15.1873 11.305 15.1873 11.905C15.1873 12.495 15.3173 13.03 15.5773 13.51C15.8373 13.98 16.1973 14.35 16.6573 14.62C17.1173 14.89 17.6323 15.025 18.2023 15.025ZM28.8077 16.075C28.0277 16.075 27.3227 15.895 26.6927 15.535C26.0727 15.175 25.5777 14.685 25.2077 14.065C24.8477 13.435 24.6627 12.73 24.6527 11.95V4.87C24.6527 4.69 24.7027 4.55 24.8027 4.45C24.9127 4.34 25.0577 4.285 25.2377 4.285C25.4077 4.285 25.5427 4.34 25.6427 4.45C25.7527 4.55 25.8077 4.69 25.8077 4.87V9.28C26.1377 8.81 26.5727 8.435 27.1127 8.155C27.6627 7.865 28.2727 7.72 28.9427 7.72C29.7127 7.72 30.4027 7.905 31.0127 8.275C31.6227 8.635 32.1027 9.13 32.4527 9.76C32.8127 10.39 32.9927 11.1 32.9927 11.89C32.9927 12.69 32.8077 13.405 32.4377 14.035C32.0777 14.665 31.5827 15.165 30.9527 15.535C30.3227 15.895 29.6077 16.075 28.8077 16.075ZM28.8077 15.025C29.3877 15.025 29.9077 14.89 30.3677 14.62C30.8277 14.34 31.1877 13.965 31.4477 13.495C31.7177 13.025 31.8527 12.49 31.8527 11.89C31.8527 11.3 31.7177 10.77 31.4477 10.3C31.1877 9.82 30.8277 9.445 30.3677 9.175C29.9077 8.905 29.3877 8.77 28.8077 8.77C28.2377 8.77 27.7227 8.905 27.2627 9.175C26.8027 9.445 26.4427 9.82 26.1827 10.3C25.9227 10.77 25.7927 11.3 25.7927 11.89C25.7927 12.49 25.9227 13.025 26.1827 13.495C26.4427 13.965 26.8027 14.34 27.2627 14.62C27.7227 14.89 28.2377 15.025 28.8077 15.025Z" fill="white"/>
</svg>
